{
  "accessors": [
    {
      "bufferView": 2,
      "componentType": 5126,
      "count": 21388,
      "max": [
        0.467864990234375,
        0.995182991027832,
        0.20290100574493408
      ],
      "min": [
        -0.4700790047645569,
        -1.0076199769973755,
        -0.2048330008983612
      ],
      "type": "VEC3"
    },
    {
      "bufferView": 2,
      "byteOffset": 256656,
      "componentType": 5126,
      "count": 21388,
      "max": [
        0.999995231628418,
        0.99969881772995,
        0.999898374080658
      ],
      "min": [
        -0.9999809265136719,
        -0.9999812841415405,
        -0.9999822378158569
      ],
      "type": "VEC3"
    },
    {
      "bufferView": 1,
      "componentType": 5126,
      "count": 21388,
      "max": [
        0.9990234375,
        0.9990234375
      ],
      "min": [
        0.0011396408081054688,
        0.00421142578125
      ],
      "type": "VEC2"
    },
    {
      "bufferView": 0,
      "componentType": 5125,
      "count": 89997,
      "type": "SCALAR"
    }
  ],
  "asset": {
    "extras": {
      "author": "3dUVpro (https://sketchfab.com/3dUVpro)",
      "license": "CC-BY-4.0 (http://creativecommons.org/licenses/by/4.0/)",
      "source": "https://sketchfab.com/3d-models/lionel-messi-of-the-argentina-57d7efd6442d430584cfd47c05c40206",
      "title": "Lionel Messi of the Argentina"
    },
    "generator": "Sketchfab-16.53.0",
    "version": "2.0"
  },
  "bufferViews": [
    {
      "buffer": 0,
      "byteLength": 359988,
      "name": "floatBufferViews",
      "target": 34963
    },
    {
      "buffer": 0,
      "byteLength": 171104,
      "byteOffset": 359988,
      "byteStride": 8,
      "name": "floatBufferViews",
      "target": 34962
    },
    {
      "buffer": 0,
      "byteLength": 513312,
      "byteOffset": 531092,
      "byteStride": 12,
      "name": "floatBufferViews",
      "target": 34962
    }
  ],
  "buffers": [
    {
      "byteLength": 1044404,
      "uri": "scene.bin"
    }
  ],
  "extensionsRequired": [
    "KHR_materials_pbrSpecularGlossiness"
  ],
  "extensionsUsed": [
    "KHR_materials_pbrSpecularGlossiness"
  ],
  "images": [
    {
      "uri": "textures/material_0_diffuse.jpeg"
    },
    {
      "uri": "textures/material_0_specularGlossiness.png"
    },
    {
      "uri": "textures/material_0_occlusion.png"
    }
  ],
  "materials": [
    {
      "doubleSided": true,
      "emissiveFactor": [
        0.6042642820938636,
        0.6042642820938636,
        0.6042642820938636
      ],
      "emissiveTexture": {
        "index": 0
      },
      "extensions": {
        "KHR_materials_pbrSpecularGlossiness": {
          "diffuseFactor": [
            1.0,
            1.0,
            1.0,
            1.0
          ],
          "diffuseTexture": {
            "index": 0
          },
          "glossinessFactor": 0.2790547782333747,
          "specularFactor": [
            0.8134796338475685,
            0.8134796338475685,
            0.8134796338475685
          ],
          "specularGlossinessTexture": {
            "index": 1
          }
        }
      },
      "name": "material_0",
      "occlusionTexture": {
        "index": 2,
        "strength": 0.2304707004502662
      }
    }
  ],
  "meshes": [
    {
      "name": "Object_0",
      "primitives": [
        {
          "attributes": {
            "NORMAL": 1,
            "POSITION": 0,
            "TEXCOORD_0": 2
          },
          "indices": 3,
          "material": 0,
          "mode": 4
        }
      ]
    }
  ],
  "nodes": [
    {
      "children": [
        1
      ],
      "matrix": [
        1.0,
        0.0,
        0.0,
        0.0,
        0.0,
        2.220446049250313e-16,
        -1.0,
        0.0,
        0.0,
        1.0,
        2.220446049250313e-16,
        0.0,
        0.0,
        0.0,
        0.0,
        1.0
      ],
      "name": "Sketchfab_model"
    },
    {
      "children": [
        2
      ],
      "name": "root"
    },
    {
      "children": [
        3
      ],
      "matrix": [
        1.0,
        0.0,
        0.0,
        0.0,
        0.0,
        2.220446049250313e-16,
        1.0,
        0.0,
        0.0,
        -1.0,
        2.220446049250313e-16,
        0.0,
        0.0,
        0.0,
        0.0,
        1.0
      ],
      "name": "GLTF_SceneRootNode"
    },
    {
      "children": [
        4
      ],
      "name": "_0"
    },
    {
      "mesh": 0,
      "name": "Object_4"
    }
  ],
  "samplers": [
    {
      "magFilter": 9729,
      "minFilter": 9987,
      "wrapS": 10497,
      "wrapT": 10497
    }
  ],
  "scene": 0,
  "scenes": [
    {
      "name": "Sketchfab_Scene",
      "nodes": [
        0
      ]
    }
  ],
  "textures": [
    {
      "sampler": 0,
      "source": 0
    },
    {
      "sampler": 0,
      "source": 1
    },
    {
      "sampler": 0,
      "source": 2
    }
  ]
}
